<svg xmlns="http://www.w3.org/2000/svg" version="1.1" xmlns:xlink="http://www.w3.org/1999/xlink" xmlns:svgjs="http://svgjs.com/svgjs" width="512" height="512" x="0" y="0" viewBox="0 0 48 48" style="enable-background:new 0 0 512 512" xml:space="preserve" class=""><g><g xmlns="http://www.w3.org/2000/svg" id="00-02-antiviru,-bug,-fixing,-insect,-ladybug,-repair,-web" fill="none" fill-rule="nonzero"><path id="Path" d="m39 5c.5522847 0 1 .44771525 1 1s-.4477153 1-1 1c-5.2796018 0-8.8063207 1.59027888-10.7253212 4.7572802 2.9561877 1.0802829 5.4781321 3.250607 7.2126407 6.0918432 1.9163338-1.5155336 2.9081903-2.2986865 2.9755694-2.3494588.4410789-.3323671 1.0680807-.2442386 1.4004478.1968403.332367.4410789.2442385 1.0680807-.1968404 1.4004477l-3.2285835 2.5515107c.8725232 1.9243212 1.4123743 4.0754672 1.535214 6.3524515l4.0268732-.0009148c.5522847 0 1 .4477153 1 1 0 .5128358-.3958221 1.0000897-1 1.0000897h-4.0269274c-.1464144 2.7112183-.8840607 5.2439988-2.0694824 7.4281198l3.6964098 2.7717905c.4418278.3313708.5313708.9581722.2 1.4-.3058808.407841-.9119094.5690555-1.4.2l-3.5596363-2.6711629c-2.503314 3.5802049-6.4573033 5.8711629-10.8403637 5.8711629s-8.2779592-2.290958-10.8396485-5.8701636l-3.5603515 2.6701636c-.47980897.3567176-1.09411922.207841-1.4-.2s-.26574606-1.0523812.2-1.4l3.6969514-2.7707927c-1.1857386-2.1843474-1.9235873-4.7174864-2.070024-7.4291176l-4.0269274-.0000897c-.55228475 0-1-.4477153-1-1 0-.5128358.41883793-.9990852 1-1l4.0268732.0009148c.1228822-2.2777715.6630641-4.4296178 1.5354837-6.3546063-2.02035597-1.599394-3.06076256-2.422041-3.12121973-2.4679411-.43987427-.3339597-.52573502-.961276-.19177534-1.4011503s.96127604-.525735 1.40115032-.1917753l2.86393525 2.2653166c1.7327417-2.8428712 4.2546861-5.0131953 7.2106126-6.0932092-1.9189584-3.16727032-5.4456772-4.7575492-10.72527906-4.7575492-.55228475 0-1-.44771525-1-1s.44771525-1 1-1c6.18239686 0 10.47605516 2.06526397 12.71677436 6.211126.7419535-.1388627 1.5050001-.211126 2.2834447-.211126s1.5414912.0722633 2.2844057.2111725c2.2395392-4.14590853 6.5331975-6.2111725 12.7155943-6.2111725z" fill="#2eaff0" data-original="#2eaff0" class=""></path><path id="Shape" d="m35.4887515 17.8389594.1847403.3090258c.6644242 1.1338233 2.3265082 4.2796961 2.3265082 8.8520148 0 8.4367933-5.8573927 15.9903171-13.9871501 16.000216l-.0015038-20.0007032c3.3513504.0010925 6.7860763-1.2706411 11.4774054-5.1605534zm-22.9661568 0c4.6913291 3.8899123 8.1260549 5.1616459 11.4774053 5.1605534l-.0015038 20.0007032c-8.1297574-.0098989-13.9871501-7.5634227-13.9871501-16.000216 0-5.0948695 2.0636978-8.418617 2.5112486-9.1610406z" fill="#f5f8fa" data-original="#f5f8fa"></path><path id="Shape" d="m39 5c.5522847 0 1 .44771525 1 1s-.4477153 1-1 1c-5.2796018 0-8.8063207 1.59027888-10.7253212 4.7572802 2.9561877 1.0802829 5.4781321 3.250607 7.2126407 6.0918432 1.9163338-1.5155336 2.9081903-2.2986865 2.9755694-2.3494588.4410789-.3323671 1.0680807-.2442386 1.4004478.1968403.332367.4410789.2442385 1.0680807-.1968404 1.4004477l-3.2285835 2.5515107c.8725232 1.9243212 1.4123743 4.0754672 1.535214 6.3524515l4.0268732-.0009148c.5522847 0 1 .4477153 1 1 0 .5128358-.3958221 1.0000897-1 1.0000897h-4.0269274c-.1464144 2.7112183-.8840607 5.2439988-2.0694824 7.4281198l3.6964098 2.7717905c.4418278.3313708.5313708.9581722.2 1.4-.3058808.407841-.9119094.5690555-1.4.2l-3.5596363-2.6711629c-2.503314 3.5802049-6.4573033 5.8711629-10.8403637 5.8711629s-8.2779592-2.290958-10.8396485-5.8701636l-3.5603515 2.6701636c-.47980897.3567176-1.09411922.207841-1.4-.2s-.26574606-1.0523812.2-1.4l3.6969514-2.7707927c-1.1857386-2.1843474-1.9235873-4.7174864-2.070024-7.4291176l-4.0269274-.0000897c-.55228475 0-1-.4477153-1-1 0-.5128358.41883793-.9990852 1-1l4.0268732.0009148c.1228822-2.2777715.6630641-4.4296178 1.5354837-6.3546063-2.02035597-1.599394-3.06076256-2.422041-3.12121973-2.4679411-.43987427-.3339597-.52573502-.961276-.19177534-1.4011503s.96127604-.525735 1.40115032-.1917753l2.86393525 2.2653166c1.7327417-2.8428712 4.2546861-5.0131953 7.2106126-6.0932092-1.9189584-3.16727032-5.4456772-4.7575492-10.72527906-4.7575492-.55228475 0-1-.44771525-1-1s.44771525-1 1-1c6.18239686 0 10.47605516 2.06526397 12.71677436 6.211126.7419535-.1388627 1.5050001-.211126 2.2834447-.211126s1.5414912.0722633 2.2844057.2111725c2.2395392-4.14590853 6.5331975-6.2111725 12.7155943-6.2111725zm-25.7979628 15.8915059c-.8387918 1.9807007-1.2020372 4.0018684-1.2020372 6.1084941 0 7.3869992 4.8980362 13.3947859 11.0550695 13.9570091v-15.9852861c-3.3972929-.2061383-6.3495619-1.5415875-9.8530323-4.0802171zm21.5969392-.0023165c-3.5693279 2.5669381-6.451252 3.8511742-9.7432055 4.0753967l.0002094 15.9816882c6.1047261-.6238076 10.9440197-6.6037052 10.9440197-13.9462743 0-2.1941377-.4321292-4.2665945-1.2010236-6.1108106zm-10.7989764-7.8891894c-4.0897154 0-7.7230198 2.4005247-9.892513 6.0759087 3.6327183 2.6741652 6.5122071 3.9240913 9.892513 3.9240913s6.2597947-1.2499261 9.8911104-3.9230399c-2.1680906-3.6764354-5.801395-6.0769601-9.8911104-6.0769601z" fill="#0d47a1" data-original="#0d47a1" class=""></path></g></g></svg>
